<svg width="122" height="25" fill="none" xmlns="http://www.w3.org/2000/svg"><path d="M12.376 24.384c-2.283 0-4.352-.49-6.208-1.472-1.835-1.003-3.285-2.379-4.352-4.128C.771 17.014.248 15.019.248 12.8s.523-4.203 1.568-5.952A11.097 11.097 0 0 1 6.168 2.72c1.856-1.003 3.936-1.504 6.24-1.504 1.941 0 3.69.341 5.248 1.024 1.579.683 2.901 1.664 3.968 2.944l-3.328 3.072c-1.515-1.75-3.392-2.624-5.632-2.624-1.387 0-2.624.31-3.712.928a6.483 6.483 0 0 0-2.56 2.528c-.597 1.088-.896 2.325-.896 3.712s.299 2.624.896 3.712a6.707 6.707 0 0 0 2.56 2.56c1.088.597 2.325.896 3.712.896 2.24 0 4.117-.885 5.632-2.656l3.328 3.072a10.374 10.374 0 0 1-3.968 2.976c-1.579.683-3.339 1.024-5.28 1.024Zm19.675-.128c-1.813 0-3.445-.373-4.896-1.12-1.43-.768-2.55-1.824-3.36-3.168s-1.216-2.87-1.216-4.576c0-1.707.405-3.232 1.216-4.576.81-1.344 1.93-2.39 3.36-3.136 1.45-.768 3.083-1.152 4.896-1.152 1.813 0 3.435.384 4.864 1.152 1.43.747 2.55 1.792 3.36 3.136s1.216 2.87 1.216 4.576c0 1.707-.405 3.232-1.216 4.576-.81 1.344-1.93 2.4-3.36 3.168-1.43.747-3.05 1.12-4.864 1.12Zm0-4.096c1.28 0 2.325-.427 3.136-1.28.832-.875 1.248-2.037 1.248-3.488 0-1.45-.416-2.603-1.248-3.456-.81-.875-1.856-1.312-3.136-1.312s-2.336.437-3.168 1.312c-.832.853-1.248 2.005-1.248 3.456 0 1.45.416 2.613 1.248 3.488.832.853 1.888 1.28 3.168 1.28ZM52.7 24.256c-1.814 0-3.446-.373-4.896-1.12-1.43-.768-2.55-1.824-3.36-3.168s-1.216-2.87-1.216-4.576c0-1.707.405-3.232 1.216-4.576.81-1.344 1.93-2.39 3.36-3.136 1.45-.768 3.082-1.152 4.896-1.152 1.813 0 3.434.384 4.864 1.152 1.43.747 2.55 1.792 3.36 3.136s1.216 2.87 1.216 4.576c0 1.707-.406 3.232-1.216 4.576-.81 1.344-1.93 2.4-3.36 3.168-1.43.747-3.05 1.12-4.864 1.12Zm0-4.096c1.28 0 2.325-.427 3.136-1.28.832-.875 1.248-2.037 1.248-3.488 0-1.45-.416-2.603-1.248-3.456-.81-.875-1.856-1.312-3.136-1.312s-2.336.437-3.168 1.312c-.832.853-1.248 2.005-1.248 3.456 0 1.45.416 2.613 1.248 3.488.832.853 1.888 1.28 3.168 1.28Zm23.56 3.008c-.49.363-1.098.64-1.824.832a9.48 9.48 0 0 1-2.24.256c-2.047 0-3.637-.523-4.767-1.568-1.11-1.045-1.665-2.581-1.665-4.608v-7.072H63.11v-3.84h2.655V2.976h4.993v4.192h4.287v3.84h-4.287v7.008c0 .725.18 1.29.543 1.696.385.384.918.576 1.6.576.79 0 1.462-.213 2.016-.64l1.344 3.52Zm18.816-7.712c0 .064-.032.512-.096 1.344H81.954c.235 1.067.79 1.91 1.665 2.528.874.619 1.962.928 3.263.928.897 0 1.686-.128 2.368-.384a5.946 5.946 0 0 0 1.953-1.28l2.656 2.88c-1.622 1.856-3.99 2.784-7.105 2.784-1.94 0-3.658-.373-5.151-1.12-1.494-.768-2.646-1.824-3.457-3.168-.81-1.344-1.216-2.87-1.216-4.576 0-1.685.395-3.2 1.184-4.544a8.401 8.401 0 0 1 3.297-3.168c1.407-.768 2.975-1.152 4.703-1.152 1.686 0 3.211.363 4.577 1.088a7.81 7.81 0 0 1 3.2 3.136c.789 1.344 1.184 2.912 1.184 4.704Zm-8.928-5.152c-1.131 0-2.08.32-2.849.96-.768.64-1.237 1.515-1.408 2.624h8.48c-.17-1.088-.64-1.952-1.407-2.592-.769-.661-1.707-.992-2.817-.992ZM98.078.256h4.992V24h-4.992V.256Zm15.097 24a17.22 17.22 0 0 1-4.192-.512c-1.365-.363-2.453-.81-3.264-1.344l1.664-3.584c.768.49 1.696.896 2.784 1.216 1.088.299 2.155.448 3.2.448 2.112 0 3.168-.523 3.168-1.568 0-.49-.288-.843-.864-1.056-.576-.213-1.461-.395-2.656-.544-1.408-.213-2.571-.459-3.488-.736a5.527 5.527 0 0 1-2.4-1.472c-.661-.704-.992-1.707-.992-3.008 0-1.088.309-2.048.928-2.88.64-.853 1.557-1.515 2.752-1.984 1.216-.47 2.645-.704 4.288-.704 1.216 0 2.421.139 3.616.416 1.216.256 2.219.619 3.008 1.088l-1.664 3.552c-1.515-.853-3.168-1.28-4.96-1.28-1.067 0-1.867.15-2.4.448-.533.299-.8.683-.8 1.152 0 .533.288.907.864 1.12.576.213 1.493.416 2.752.608 1.408.235 2.56.49 3.456.768a5.068 5.068 0 0 1 2.336 1.44c.661.704.992 1.685.992 2.944 0 1.067-.32 2.016-.96 2.848-.64.832-1.579 1.483-2.816 1.952-1.216.448-2.667.672-4.352.672Z" fill="#fff"/></svg>