<svg width="121" height="25" fill="none" xmlns="http://www.w3.org/2000/svg"><path d="M12.376 24.32c-2.261 0-4.31-.49-6.144-1.472-1.813-1.003-3.243-2.379-4.288-4.128C.92 16.97.408 14.997.408 12.8s.523-4.17 1.568-5.92a10.998 10.998 0 0 1 4.288-4.096c1.835-1.003 3.883-1.504 6.144-1.504 1.835 0 3.51.32 5.024.96a10.247 10.247 0 0 1 3.84 2.784l-2.688 2.528c-1.621-1.75-3.616-2.624-5.984-2.624-1.536 0-2.912.341-4.128 1.024a7.152 7.152 0 0 0-2.848 2.784C4.941 9.931 4.6 11.286 4.6 12.8c0 1.515.341 2.87 1.024 4.064a7.373 7.373 0 0 0 2.848 2.816c1.216.661 2.592.992 4.128.992 2.368 0 4.363-.885 5.984-2.656l2.688 2.56c-1.045 1.216-2.336 2.144-3.872 2.784-1.515.64-3.19.96-5.024.96Zm19.553-.096c-1.728 0-3.285-.373-4.672-1.12A8.312 8.312 0 0 1 23.993 20c-.768-1.344-1.152-2.859-1.152-4.544 0-1.685.384-3.19 1.152-4.512a8.312 8.312 0 0 1 3.264-3.104c1.387-.747 2.944-1.12 4.672-1.12 1.75 0 3.317.373 4.704 1.12 1.387.747 2.464 1.781 3.232 3.104.79 1.323 1.184 2.827 1.184 4.512 0 1.685-.395 3.2-1.184 4.544-.768 1.323-1.845 2.357-3.232 3.104-1.387.747-2.955 1.12-4.704 1.12Zm0-3.424c1.472 0 2.688-.49 3.648-1.472.96-.981 1.44-2.272 1.44-3.872s-.48-2.89-1.44-3.872c-.96-.981-2.176-1.472-3.648-1.472s-2.688.49-3.648 1.472c-.939.981-1.408 2.272-1.408 3.872s.47 2.89 1.408 3.872c.96.981 2.176 1.472 3.648 1.472Zm20.625 3.424c-1.728 0-3.285-.373-4.672-1.12A8.312 8.312 0 0 1 44.618 20c-.768-1.344-1.152-2.859-1.152-4.544 0-1.685.384-3.19 1.152-4.512a8.312 8.312 0 0 1 3.264-3.104c1.387-.747 2.944-1.12 4.672-1.12 1.75 0 3.317.373 4.704 1.12 1.387.747 2.464 1.781 3.232 3.104.79 1.323 1.184 2.827 1.184 4.512 0 1.685-.395 3.2-1.184 4.544-.768 1.323-1.845 2.357-3.232 3.104-1.387.747-2.955 1.12-4.704 1.12Zm0-3.424c1.472 0 2.688-.49 3.648-1.472.96-.981 1.44-2.272 1.44-3.872s-.48-2.89-1.44-3.872c-.96-.981-2.176-1.472-3.648-1.472s-2.688.49-3.648 1.472c-.939.981-1.408 2.272-1.408 3.872s.47 2.89 1.408 3.872c.96.981 2.176 1.472 3.648 1.472Zm23.217 2.272c-.47.384-1.045.672-1.728.864a7.54 7.54 0 0 1-2.112.288c-1.877 0-3.328-.49-4.352-1.472-1.024-.981-1.536-2.41-1.536-4.288V10.24h-2.816v-3.2h2.816V3.136h4V7.04h4.576v3.2h-4.576v8.128c0 .832.203 1.472.608 1.92.405.427.992.64 1.76.64.896 0 1.643-.235 2.24-.704l1.12 2.848Zm18.792-7.52c0 .277-.021.672-.064 1.184H81.091c.235 1.259.843 2.261 1.824 3.008 1.003.725 2.24 1.088 3.712 1.088 1.877 0 3.424-.619 4.64-1.856l2.144 2.464c-.768.917-1.739 1.61-2.912 2.08-1.173.47-2.496.704-3.968.704-1.877 0-3.53-.373-4.96-1.12-1.43-.747-2.539-1.781-3.328-3.104-.768-1.344-1.152-2.859-1.152-4.544 0-1.664.373-3.157 1.12-4.48a8.138 8.138 0 0 1 3.168-3.136c1.344-.747 2.859-1.12 4.544-1.12 1.664 0 3.147.373 4.448 1.12a7.555 7.555 0 0 1 3.072 3.104c.747 1.323 1.12 2.859 1.12 4.608Zm-8.64-5.632c-1.28 0-2.368.384-3.264 1.152-.875.747-1.408 1.75-1.6 3.008h9.696c-.17-1.237-.693-2.24-1.568-3.008-.875-.768-1.963-1.152-3.264-1.152ZM98.405.256h4V24h-4V.256Zm14.53 23.968c-1.386 0-2.741-.181-4.064-.544-1.322-.363-2.378-.821-3.168-1.376l1.536-3.04c.768.512 1.686.928 2.752 1.248 1.088.299 2.155.448 3.2.448 2.39 0 3.584-.63 3.584-1.888 0-.597-.309-1.013-.928-1.248-.597-.235-1.568-.459-2.912-.672-1.408-.213-2.56-.459-3.456-.736a5.48 5.48 0 0 1-2.304-1.44c-.64-.704-.96-1.675-.96-2.912 0-1.621.672-2.912 2.016-3.872 1.366-.981 3.2-1.472 5.504-1.472 1.174 0 2.347.139 3.52.416 1.174.256 2.134.608 2.88 1.056l-1.536 3.04c-1.45-.853-3.082-1.28-4.896-1.28-1.173 0-2.069.181-2.688.544-.597.341-.896.8-.896 1.376 0 .64.32 1.099.96 1.376.662.256 1.675.501 3.04.736 1.366.213 2.486.459 3.36.736a5.138 5.138 0 0 1 2.24 1.408c.64.661.96 1.6.96 2.816 0 1.6-.693 2.88-2.08 3.84-1.386.96-3.274 1.44-5.664 1.44Z" fill="#192252"/></svg>