<svg width="32" height="32" fill="none" xmlns="http://www.w3.org/2000/svg"><path d="M23.169 0H8.83C3.96 0 0 3.962 0 8.83V23.17c0 4.87 3.961 8.83 8.83 8.83H23.17c4.87 0 8.83-3.96 8.83-8.83V8.831C32 3.96 28.04 0 23.17 0Zm5.992 23.169a5.998 5.998 0 0 1-5.992 5.992H8.831a5.998 5.998 0 0 1-5.992-5.992V8.831a5.998 5.998 0 0 1 5.992-5.992h14.338a5.999 5.999 0 0 1 5.992 5.992v14.338Z" fill="#fff"/><path d="M16 7.755c-4.547 0-8.246 3.699-8.246 8.245 0 4.547 3.7 8.245 8.246 8.245 4.547 0 8.245-3.698 8.245-8.245 0-4.546-3.698-8.245-8.245-8.245Zm0 13.651A5.412 5.412 0 0 1 10.594 16 5.412 5.412 0 0 1 16 10.594 5.412 5.412 0 0 1 21.406 16 5.412 5.412 0 0 1 16 21.406ZM24.591 5.347a2.09 2.09 0 0 0-1.47.61 2.092 2.092 0 0 0-.612 1.472 2.1 2.1 0 0 0 .612 1.473c.386.386.923.61 1.47.61.55 0 1.085-.224 1.473-.61.388-.388.61-.926.61-1.473 0-.548-.222-1.086-.61-1.472a2.091 2.091 0 0 0-1.473-.61Z" fill="#fff"/></svg>